# xmcd CD database file
#
# Track frame offsets:
#	183
#	12548
#	25693
#	40425
#	52523
#	65615
#	79433
#	92238
#	103385
#	116918
#	126883
#	141390
#	152868
#	165073
#	176948
#	191745
#	204243
#	216870
#	231135
#	244595
#	257260
#	268808
#
# Disc length: 3757 seconds
#
# Revision: 0
# Processed by: cddbd v1.4PL0 Copyright (c) Steve Scherf et al.
# Submitted via: CDex 1.50
#
DISCID=3d0eab16
DTITLE=Benny Goodman - 1928-1931
DYEAR=1993
DGENRE=Jazz
TTITLE0=A Jazz Holiday
TTITLE1=Wolverine Blues
TTITLE2=Jungle Blues
TTITLE3=Room 1411 (Goin' to Town)
TTITLE4=Blue
TTITLE5=Shirt Tail Stomp
TTITLE6=That's a Plenty
TTITLE7=Clarinetitis
TTITLE8=After a While
TTITLE9=Muskrat Scramble
TTITLE10=He's Not Worth Your Tears
TTITLE11=Linda
TTITLE12=And Then Your Lips Met Mine
TTITLE13=Overnight
TTITLE14=If You Haven't Got a Girl
TTITLE15=I'm Happy When You're Happy
TTITLE16=You Didn't Have to Tell Me
TTITLE17=Falling in Love Again
TTITLE18=We Can Live on Love
TTITLE19=When Your Lover Has Gone
TTITLE20=99 out of a Hundred Wanna Be Loved
TTITLE21=Mine Yesterday, His Today
EXTD=YEAR: 1993
EXTT0=
EXTT1=
EXTT2=
EXTT3=
EXTT4=
EXTT5=
EXTT6=
EXTT7=
EXTT8=
EXTT9=
EXTT10=
EXTT11=
EXTT12=
EXTT13=
EXTT14=
EXTT15=
EXTT16=
EXTT17=
EXTT18=
EXTT19=
EXTT20=
EXTT21=
PLAYORDER=
